<?xml version="1.0" encoding="UTF-8" standalone="no"?>
<!-- Created with Inkscape (http://www.inkscape.org/) -->

<svg
   width="140.13692mm"
   height="98.103798mm"
   viewBox="0 0 140.13692 98.103798"
   version="1.1"
   id="svg5"
   xml:space="preserve"
   xmlns:inkscape="http://www.inkscape.org/namespaces/inkscape"
   xmlns:sodipodi="http://sodipodi.sourceforge.net/DTD/sodipodi-0.dtd"
   xmlns="http://www.w3.org/2000/svg"
   xmlns:svg="http://www.w3.org/2000/svg"><sodipodi:namedview
     id="namedview7"
     pagecolor="#ffffff"
     bordercolor="#000000"
     borderopacity="0.25"
     inkscape:showpageshadow="2"
     inkscape:pageopacity="0.0"
     inkscape:pagecheckerboard="0"
     inkscape:deskcolor="#d1d1d1"
     inkscape:document-units="mm"
     showgrid="false" /><defs
     id="defs2" /><g
     inkscape:label="Camada 1"
     inkscape:groupmode="layer"
     id="layer1"
     transform="translate(-33.257062,-84.938375)"><g
       id="g567"
       transform="matrix(0.18738388,0,0,0.20286147,10.447514,25.018045)"><g
         id="g413"
         transform="translate(-19.713701,67.375586)"
         inkscape:export-filename="g413.svg"
         inkscape:export-xdpi="96"
         inkscape:export-ydpi="96">
	<path
   class="st0"
   d="m 407.92,468.81 c -57.77,-15.52 -122.21,9.8 -177.8,-12.27 -1.36,-0.54 -2.81,-1.12 -4.25,-0.87 -1.16,0.2 -2.16,0.92 -3.12,1.62 -19.56,14.3 -39.11,28.6 -58.67,42.9 12.55,-1.47 53.71,0.28 64.99,0.8 21.95,1.02 43.87,2.79 65.7,5.31 43.96,5.07 87.58,13.17 130.43,24.23 24.05,6.21 47.53,15.31 71.51,21.25 -13.39,-40.04 -48.22,-72.07 -88.79,-82.97 z"
   id="path309" />
	<path
   class="st1"
   d="m 426.73,470.96 c -32.35,-13.43 -68.01,-16.49 -103.03,-17.23 -23.82,-0.5 -49.68,-0.66 -68.46,-15.31 8.83,-1.02 17.49,-3.52 25.49,-7.38 3.33,5.53 9.8,8.26 15.99,10.08 30.42,8.98 63.19,4.59 94.42,10.15 40.6,7.24 77.74,32.12 99.87,66.92 4.1,6.44 8.07,14.65 9.84,23.77 -5.97,-14.1 -19.51,-31.59 -26.26,-38.69 -13.35,-14.05 -30,-24.9 -47.86,-32.31 z"
   id="path311" />
	<path
   class="st1"
   d="m 403,441.27 c -15.5,-3.32 -32.43,-3.64 -48.18,-5.4 -7.67,-0.85 -15.38,-1.9 -22.7,-4.36 -7.32,-2.46 -14.28,-6.44 -19.24,-12.36 6.34,0.69 12.85,-0.27 18.72,-2.76 0.66,2.81 2.74,5.07 4.97,6.9 6.16,5.03 13.94,7.72 21.76,9.15 7.83,1.43 15.81,1.7 23.73,2.44 20.67,1.95 41.64,7.49 59.03,19.2 4.85,3.26 15.13,11.86 19.1,16.16 C 442.92,455.37 421.9,445.32 403,441.27 Z"
   id="path313" />
	<path
   class="st0"
   d="m 593.79,469.15 c 57.77,-15.52 122.21,9.8 177.8,-12.27 1.36,-0.54 2.81,-1.12 4.25,-0.87 1.16,0.2 2.16,0.92 3.12,1.62 19.56,14.3 39.11,28.6 58.67,42.9 -12.55,-1.47 -53.71,0.28 -64.99,0.8 -21.95,1.02 -43.87,2.79 -65.7,5.31 -43.96,5.07 -87.58,13.17 -130.43,24.23 -24.05,6.21 -47.53,15.31 -71.51,21.25 13.38,-40.04 48.22,-72.07 88.79,-82.97 z"
   id="path315" />
	<path
   class="st1"
   d="m 574.97,471.3 c 32.35,-13.43 68.01,-16.49 103.03,-17.23 23.82,-0.5 49.68,-0.66 68.46,-15.31 -8.83,-1.02 -17.48,-3.52 -25.49,-7.38 -3.33,5.53 -9.8,8.26 -15.99,10.08 -30.42,8.98 -63.19,4.59 -94.42,10.15 -40.6,7.24 -77.74,32.12 -99.87,66.92 -4.1,6.44 -8.07,14.65 -9.84,23.77 5.97,-14.1 19.51,-31.59 26.26,-38.69 13.36,-14.05 30,-24.9 47.86,-32.31 z"
   id="path317" />
	<path
   class="st1"
   d="m 598.7,441.61 c 15.5,-3.32 32.43,-3.64 48.18,-5.4 7.67,-0.85 15.38,-1.9 22.7,-4.36 7.32,-2.46 14.28,-6.44 19.24,-12.36 -6.34,0.69 -12.85,-0.27 -18.72,-2.76 -0.66,2.81 -2.74,5.07 -4.97,6.9 -6.16,5.03 -13.94,7.72 -21.76,9.15 -7.83,1.43 -15.81,1.7 -23.73,2.44 -20.67,1.95 -41.64,7.49 -59.03,19.2 -4.85,3.26 -15.13,11.86 -19.1,16.16 17.28,-14.87 38.29,-24.92 57.19,-28.97 z"
   id="path319" />
	<path
   class="st2"
   d="m 232.94,517.65 c 0,0 149.82,3.38 268.06,39.73 v 16.91 c 0,-0.01 -63.5,-32.97 -268.06,-56.64 z"
   id="path321" />
	<path
   class="st2"
   d="m 769.05,517.65 c 0,0 -149.82,3.38 -268.05,39.73 v 16.91 c 0,-0.01 63.5,-32.97 268.05,-56.64 z"
   id="path323" />
	<g
   id="g333">
		<g
   id="g331">
			<path
   class="st2"
   d="m 141.44,594.47 c 0,-1.1 0.35,-2.03 1.07,-2.8 0.71,-0.77 1.67,-1.15 2.88,-1.15 h 14.47 c 1.09,0 2.03,0.39 2.8,1.15 0.77,0.77 1.15,1.7 1.15,2.8 v 44.41 l 41.45,-46.71 c 0.33,-0.44 0.74,-0.82 1.23,-1.15 0.49,-0.33 1.12,-0.49 1.89,-0.49 h 16.45 c 1.53,0 2.63,0.69 3.29,2.06 0.66,1.37 0.44,2.66 -0.66,3.87 l -42.93,48.36 46.06,55.1 c 0.88,1.1 1.01,2.33 0.41,3.7 -0.6,1.37 -1.73,2.06 -3.37,2.06 H 209.7 c -0.88,0 -1.54,-0.14 -1.97,-0.41 -0.44,-0.27 -0.77,-0.52 -0.99,-0.74 l -42.93,-52.96 v 50.17 c 0,1.1 -0.39,2.03 -1.15,2.8 -0.77,0.77 -1.7,1.15 -2.8,1.15 h -14.47 c -1.21,0 -2.17,-0.38 -2.88,-1.15 -0.71,-0.77 -1.07,-1.7 -1.07,-2.8 z"
   id="path325" />
			<path
   class="st2"
   d="m 310.2,647.43 c 2.41,0.88 4.8,2 7.15,3.37 2.36,1.37 4.47,3.13 6.33,5.26 1.86,2.14 3.37,4.69 4.52,7.65 1.15,2.96 1.73,6.36 1.73,10.2 0,4.61 -0.93,8.86 -2.8,12.75 -1.87,3.89 -4.42,7.24 -7.65,10.03 -3.24,2.8 -7.02,4.99 -11.35,6.58 -4.33,1.59 -9.02,2.38 -14.06,2.38 h -39.8 c -0.88,0 -1.62,-0.3 -2.22,-0.9 -0.6,-0.6 -0.9,-1.34 -0.9,-2.22 V 593.65 c 0,-0.88 0.3,-1.62 0.9,-2.22 0.6,-0.6 1.34,-0.91 2.22,-0.91 h 37.67 c 4.93,0 9.51,0.77 13.73,2.3 4.22,1.54 7.9,3.68 11.02,6.42 3.13,2.74 5.56,5.98 7.32,9.7 1.75,3.73 2.63,7.73 2.63,12.01 0,6.25 -1.67,11.54 -5.02,15.87 -3.35,4.33 -7.16,7.59 -11.43,9.79 v 0.82 z m -19.9,-8.55 c 4.17,0 7.51,-1.42 10.03,-4.28 2.52,-2.85 3.78,-6.36 3.78,-10.53 0,-4.17 -1.26,-7.54 -3.78,-10.12 -2.52,-2.58 -5.87,-3.87 -10.03,-3.87 h -17.93 v 28.79 h 17.93 z m 2.3,47.37 c 4.17,0 7.62,-1.42 10.36,-4.28 2.74,-2.85 4.11,-6.42 4.11,-10.69 0,-4.17 -1.37,-7.59 -4.11,-10.28 -2.74,-2.69 -6.2,-4.03 -10.36,-4.03 h -20.23 v 29.28 z"
   id="path327" />
			<path
   class="st2"
   d="m 356.59,591.84 c 0,-0.88 0.3,-1.59 0.9,-2.14 0.6,-0.55 1.34,-0.82 2.22,-0.82 h 2.47 c 1.09,0 2.03,0.39 2.8,1.15 l 67.11,71.55 h 0.33 v -67.93 c 0,-0.88 0.3,-1.62 0.9,-2.22 0.6,-0.6 1.34,-0.91 2.22,-0.91 h 15.13 c 0.88,0 1.62,0.3 2.22,0.91 0.6,0.6 0.9,1.34 0.9,2.22 v 110.7 c 0,0.88 -0.3,1.59 -0.9,2.14 -0.6,0.55 -1.34,0.82 -2.22,0.82 h -2.3 c -1.1,0 -2.03,-0.38 -2.8,-1.15 l -67.44,-74.35 h -0.33 v 70.73 c 0,0.88 -0.3,1.62 -0.9,2.22 -0.6,0.6 -1.34,0.9 -2.22,0.9 h -14.97 c -0.88,0 -1.62,-0.3 -2.22,-0.9 -0.6,-0.6 -0.9,-1.34 -0.9,-2.22 z"
   id="path329" />
		</g>
	</g>
	<g
   id="g385">
		<g
   id="g383">
			<path
   class="st1"
   d="m 495.43,617.63 c 1.18,0 1.77,0.48 1.77,1.45 0,0.89 -0.59,1.34 -1.77,1.34 h -8.14 v 30.47 c 0,1.14 -0.52,1.71 -1.55,1.71 -0.93,0 -1.39,-0.57 -1.39,-1.71 v -30.47 h -8.25 c -1.18,0 -1.77,-0.46 -1.77,-1.39 0,-0.93 0.59,-1.39 1.77,-1.39 h 19.33 z"
   id="path335" />
			<path
   class="st1"
   d="m 508.8,634.44 v 14.99 h 20.24 c 1.21,0 1.82,0.5 1.82,1.5 0,0.86 -0.61,1.29 -1.82,1.29 H 507.3 c -0.86,0 -1.28,-0.64 -1.28,-1.93 v -30.47 c 0,-1.29 0.43,-1.93 1.28,-1.93 h 21.74 c 1.21,0 1.82,0.5 1.82,1.5 0,0.86 -0.61,1.28 -1.82,1.28 H 508.8 v 10.98 h 13.87 c 1.29,0 1.93,0.5 1.93,1.5 0,0.86 -0.64,1.29 -1.93,1.29 z"
   id="path337" />
			<path
   class="st1"
   d="m 560.82,652.22 h -7.55 c -4.14,0 -7.17,-0.64 -9.08,-1.93 -1.91,-1.29 -2.86,-3.85 -2.86,-7.71 v -15.31 c 0,-3.85 0.95,-6.42 2.84,-7.71 1.89,-1.29 4.82,-1.93 8.78,-1.93 h 7.87 c 1.14,0 2.1,0.17 2.86,0.51 0.77,0.34 1.32,0.82 1.66,1.45 0.34,0.63 0.56,1.24 0.67,1.85 0.11,0.61 0.16,1.34 0.16,2.2 0,1.25 -0.46,1.87 -1.39,1.87 -0.93,0 -1.39,-0.59 -1.39,-1.77 0,-1.25 -0.21,-2.12 -0.64,-2.6 -0.43,-0.48 -1.2,-0.72 -2.3,-0.72 h -7.5 c -1.71,0 -3.05,0.06 -4.02,0.19 -0.96,0.13 -1.86,0.42 -2.68,0.88 -0.82,0.46 -1.38,1.16 -1.69,2.09 -0.3,0.93 -0.46,2.16 -0.46,3.69 v 15.31 c 0,2.96 0.64,4.85 1.93,5.65 1.29,0.8 3.7,1.21 7.23,1.21 h 7.17 c 1.14,0 1.92,-0.25 2.33,-0.75 0.41,-0.5 0.62,-1.36 0.62,-2.57 0,-1.18 0.46,-1.77 1.39,-1.77 0.93,0 1.39,0.64 1.39,1.93 0,0.82 -0.05,1.54 -0.16,2.14 -0.11,0.61 -0.33,1.22 -0.67,1.85 -0.34,0.63 -0.89,1.11 -1.66,1.45 -0.75,0.33 -1.71,0.5 -2.85,0.5 z"
   id="path339" />
			<path
   class="st1"
   d="m 579.43,650.77 c 0,1.21 -0.46,1.82 -1.39,1.82 -0.93,0 -1.39,-0.61 -1.39,-1.82 v -31.11 c 0,-1.25 0.43,-1.87 1.29,-1.87 1,0 1.5,0.63 1.5,1.87 v 12.8 h 19.28 v -12.8 c 0,-1.25 0.45,-1.87 1.34,-1.87 0.96,0 1.45,0.63 1.45,1.87 v 31.11 c 0,1.21 -0.45,1.82 -1.34,1.82 -0.96,0 -1.45,-0.61 -1.45,-1.82 v -15.53 h -19.28 v 15.53 z"
   id="path341" />
			<path
   class="st1"
   d="m 635.47,652.59 c -0.5,0 -0.86,-0.13 -1.07,-0.38 l -19.65,-29.07 v 27.68 c 0,1.18 -0.46,1.77 -1.39,1.77 -0.93,0 -1.39,-0.61 -1.39,-1.82 v -31.11 c 0,-1.25 0.43,-1.87 1.29,-1.87 0.64,0 1.18,0.34 1.61,1.02 l 19.17,28.27 v -27.36 c 0,-1.28 0.45,-1.93 1.34,-1.93 0.96,0 1.45,0.63 1.45,1.87 v 31.11 c -0.02,1.21 -0.47,1.82 -1.36,1.82 z"
   id="path343" />
			<path
   class="st1"
   d="m 668.65,649.3 c -2.32,2.27 -5.3,3.4 -8.94,3.4 -3.64,0 -6.62,-1.12 -8.94,-3.37 -2.32,-2.25 -3.48,-5.35 -3.48,-9.32 v -9.64 c 0,-3.96 1.16,-7.07 3.48,-9.32 2.32,-2.25 5.3,-3.37 8.94,-3.37 3.64,0 6.62,1.13 8.94,3.4 2.32,2.27 3.48,5.36 3.48,9.29 v 9.64 c 0,3.93 -1.16,7.02 -3.48,9.29 z m -1.82,-26.21 c -1.68,-1.75 -4.05,-2.62 -7.12,-2.62 -3.07,0 -5.44,0.88 -7.12,2.62 -1.68,1.74 -2.52,4.19 -2.52,7.33 v 9.53 c 0,3.14 0.84,5.59 2.52,7.34 1.68,1.75 4.05,2.62 7.12,2.62 3.07,0 5.44,-0.87 7.12,-2.62 1.68,-1.75 2.52,-4.19 2.52,-7.34 v -9.53 c -0.01,-3.14 -0.85,-5.58 -2.52,-7.33 z"
   id="path345" />
			<path
   class="st1"
   d="m 683.88,652.22 c -0.86,0 -1.29,-0.62 -1.29,-1.87 V 619.5 c 0,-1.14 0.46,-1.71 1.39,-1.71 0.93,0 1.39,0.57 1.39,1.71 v 29.93 h 17.29 c 1.18,0 1.77,0.48 1.77,1.45 0,0.89 -0.59,1.34 -1.77,1.34 z"
   id="path347" />
			<path
   class="st1"
   d="m 736.28,649.3 c -2.32,2.27 -5.3,3.4 -8.94,3.4 -3.64,0 -6.62,-1.12 -8.94,-3.37 -2.32,-2.25 -3.48,-5.35 -3.48,-9.32 v -9.64 c 0,-3.96 1.16,-7.07 3.48,-9.32 2.32,-2.25 5.3,-3.37 8.94,-3.37 3.64,0 6.62,1.13 8.94,3.4 2.32,2.27 3.48,5.36 3.48,9.29 v 9.64 c 0,3.93 -1.16,7.02 -3.48,9.29 z m -1.82,-26.21 c -1.68,-1.75 -4.05,-2.62 -7.12,-2.62 -3.07,0 -5.44,0.88 -7.12,2.62 -1.68,1.74 -2.52,4.19 -2.52,7.33 v 9.53 c 0,3.14 0.84,5.59 2.52,7.34 1.68,1.75 4.05,2.62 7.12,2.62 3.07,0 5.44,-0.87 7.12,-2.62 1.68,-1.75 2.52,-4.19 2.52,-7.34 v -9.53 c 0,-3.14 -0.84,-5.58 -2.52,-7.33 z"
   id="path349" />
			<path
   class="st1"
   d="m 772.29,639.04 h -7.01 c -1.29,0 -1.93,-0.45 -1.93,-1.34 0,-0.96 0.64,-1.45 1.93,-1.45 h 9.8 v 10.55 c 0,1.75 -0.35,3.16 -1.04,4.23 -0.7,1.07 -2.13,1.61 -4.31,1.61 h -7.87 c -1.96,0 -3.59,-0.12 -4.87,-0.35 -1.29,-0.23 -2.47,-0.67 -3.56,-1.31 -1.09,-0.64 -1.89,-1.61 -2.41,-2.89 -0.52,-1.28 -0.78,-2.93 -0.78,-4.93 V 627.2 c 0,-3.78 0.96,-6.31 2.87,-7.58 1.91,-1.27 4.93,-1.9 9.08,-1.9 h 7.55 c 1.14,0 2.1,0.17 2.86,0.51 0.77,0.34 1.32,0.82 1.66,1.45 0.34,0.63 0.56,1.24 0.67,1.85 0.11,0.61 0.16,1.32 0.16,2.14 0,1.29 -0.46,1.93 -1.39,1.93 -0.93,0 -1.39,-0.61 -1.39,-1.82 0,-1.18 -0.21,-2.02 -0.62,-2.52 -0.41,-0.5 -1.19,-0.75 -2.33,-0.75 h -7.17 c -3.53,0 -5.94,0.4 -7.23,1.21 -1.29,0.8 -1.93,2.65 -1.93,5.54 v 15.85 c 0,2.89 0.63,4.74 1.9,5.54 1.27,0.8 3.58,1.21 6.93,1.21 h 7.5 c 1.14,0 1.92,-0.24 2.33,-0.72 0.41,-0.48 0.62,-1.31 0.62,-2.49 v -7.61 z"
   id="path351" />
			<path
   class="st1"
   d="m 788.33,650.88 c 0,1.14 -0.48,1.71 -1.45,1.71 -0.89,0 -1.34,-0.57 -1.34,-1.71 v -31.32 c 0,-1.18 0.46,-1.77 1.39,-1.77 0.93,0 1.39,0.59 1.39,1.77 v 31.32 z"
   id="path353" />
			<path
   class="st1"
   d="m 818.25,652.22 h -7.55 c -4.14,0 -7.17,-0.64 -9.08,-1.93 -1.91,-1.29 -2.87,-3.85 -2.87,-7.71 v -15.31 c 0,-3.85 0.95,-6.42 2.84,-7.71 1.89,-1.29 4.82,-1.93 8.78,-1.93 h 7.87 c 1.14,0 2.1,0.17 2.86,0.51 0.77,0.34 1.32,0.82 1.66,1.45 0.34,0.63 0.56,1.24 0.67,1.85 0.11,0.61 0.16,1.34 0.16,2.2 0,1.25 -0.46,1.87 -1.39,1.87 -0.93,0 -1.39,-0.59 -1.39,-1.77 0,-1.25 -0.21,-2.12 -0.64,-2.6 -0.43,-0.48 -1.2,-0.72 -2.3,-0.72 h -7.5 c -1.71,0 -3.05,0.06 -4.02,0.19 -0.96,0.13 -1.86,0.42 -2.68,0.88 -0.82,0.46 -1.38,1.16 -1.69,2.09 -0.3,0.93 -0.46,2.16 -0.46,3.69 v 15.31 c 0,2.96 0.64,4.85 1.93,5.65 1.29,0.8 3.69,1.21 7.23,1.21 h 7.17 c 1.14,0 1.92,-0.25 2.33,-0.75 0.41,-0.5 0.62,-1.36 0.62,-2.57 0,-1.18 0.46,-1.77 1.39,-1.77 0.93,0 1.39,0.64 1.39,1.93 0,0.82 -0.05,1.54 -0.16,2.14 -0.11,0.61 -0.33,1.22 -0.67,1.85 -0.34,0.63 -0.89,1.11 -1.66,1.45 -0.75,0.33 -1.7,0.5 -2.84,0.5 z"
   id="path355" />
			<path
   class="st1"
   d="m 832.2,653.07 c -0.29,0 -0.59,-0.11 -0.91,-0.32 -0.32,-0.21 -0.48,-0.55 -0.48,-1.02 0,-0.25 0.05,-0.54 0.16,-0.86 l 12.37,-33.25 h 2.89 l 12.37,33.25 c 0.11,0.32 0.16,0.61 0.16,0.86 0,0.46 -0.16,0.8 -0.48,1.02 -0.32,0.21 -0.63,0.32 -0.91,0.32 -0.61,0 -1.09,-0.41 -1.45,-1.23 l -3.8,-10.28 h -14.67 l -3.8,10.28 c -0.36,0.82 -0.85,1.23 -1.45,1.23 z m 12.53,-30.84 -6.21,16.54 h 12.53 z"
   id="path357" />
			<path
   class="st1"
   d="m 868.75,652.22 c -0.86,0 -1.29,-0.62 -1.29,-1.87 V 619.5 c 0,-1.14 0.46,-1.71 1.39,-1.71 0.93,0 1.39,0.57 1.39,1.71 v 29.93 h 17.29 c 1.18,0 1.77,0.48 1.77,1.45 0,0.89 -0.59,1.34 -1.77,1.34 z"
   id="path359" />
			<path
   class="st1"
   d="m 478.78,681.29 c 0,1.43 0.31,2.65 0.94,3.67 0.62,1.02 1.38,1.62 2.28,1.79 l 12.69,2.73 c 2.39,0.54 4.12,1.64 5.19,3.32 1.07,1.68 1.61,3.64 1.61,5.89 0,2.39 -0.71,4.45 -2.12,6.18 -1.41,1.73 -3.74,2.6 -6.99,2.6 h -4.44 c -2.03,0 -3.71,-0.12 -5.03,-0.35 -1.32,-0.23 -2.54,-0.68 -3.67,-1.34 -1.13,-0.66 -1.95,-1.64 -2.46,-2.95 -0.52,-1.3 -0.78,-2.97 -0.78,-5.01 0,-1.18 0.5,-1.77 1.5,-1.77 0.89,0 1.34,0.59 1.34,1.77 0,2.96 0.63,4.85 1.9,5.65 1.27,0.8 3.67,1.21 7.2,1.21 h 5.46 c 1.89,0 3.25,-0.64 4.07,-1.93 0.82,-1.29 1.23,-2.66 1.23,-4.12 0,-1.75 -0.35,-3.17 -1.04,-4.26 -0.7,-1.09 -1.42,-1.72 -2.17,-1.9 l -12.58,-2.78 c -2.5,-0.54 -4.27,-1.47 -5.33,-2.81 -1.05,-1.34 -1.58,-3.22 -1.58,-5.65 0,-2.39 0.73,-4.43 2.2,-6.13 1.46,-1.69 3.89,-2.54 7.28,-2.54 h 4.07 c 2.03,0 3.7,0.12 5.01,0.35 1.3,0.23 2.52,0.67 3.67,1.31 1.14,0.64 1.97,1.61 2.49,2.89 0.52,1.29 0.78,2.95 0.78,4.98 0,1.18 -0.48,1.77 -1.45,1.77 -0.93,0 -1.39,-0.59 -1.39,-1.77 0,-2.96 -0.63,-4.83 -1.87,-5.59 -1.25,-0.77 -3.66,-1.15 -7.23,-1.15 h -5.25 c -1.93,0 -3.33,0.63 -4.2,1.87 -0.89,1.25 -1.33,2.61 -1.33,4.07 z"
   id="path361" />
			<path
   class="st1"
   d="m 529.84,707.04 h -7.55 c -4.14,0 -7.17,-0.64 -9.08,-1.93 -1.91,-1.29 -2.86,-3.85 -2.86,-7.71 v -15.31 c 0,-3.85 0.95,-6.42 2.84,-7.71 1.89,-1.29 4.82,-1.93 8.78,-1.93 h 7.87 c 1.14,0 2.1,0.17 2.86,0.51 0.77,0.34 1.32,0.82 1.66,1.45 0.34,0.63 0.56,1.24 0.67,1.85 0.11,0.61 0.16,1.34 0.16,2.2 0,1.25 -0.46,1.87 -1.39,1.87 -0.93,0 -1.39,-0.59 -1.39,-1.77 0,-1.25 -0.21,-2.12 -0.64,-2.6 -0.43,-0.48 -1.2,-0.72 -2.3,-0.72 h -7.5 c -1.71,0 -3.05,0.06 -4.02,0.19 -0.96,0.13 -1.86,0.42 -2.68,0.88 -0.82,0.46 -1.38,1.16 -1.69,2.09 -0.3,0.93 -0.46,2.16 -0.46,3.69 v 15.31 c 0,2.96 0.64,4.85 1.93,5.65 1.29,0.8 3.7,1.21 7.23,1.21 h 7.18 c 1.14,0 1.92,-0.25 2.33,-0.75 0.41,-0.5 0.62,-1.36 0.62,-2.57 0,-1.18 0.46,-1.77 1.39,-1.77 0.93,0 1.39,0.64 1.39,1.93 0,0.82 -0.05,1.54 -0.16,2.14 -0.11,0.61 -0.33,1.22 -0.67,1.85 -0.34,0.63 -0.89,1.11 -1.66,1.45 -0.76,0.34 -1.72,0.5 -2.86,0.5 z"
   id="path363" />
			<path
   class="st1"
   d="m 548.45,705.6 c 0,1.21 -0.46,1.82 -1.39,1.82 -0.93,0 -1.39,-0.61 -1.39,-1.82 v -31.11 c 0,-1.25 0.43,-1.87 1.29,-1.87 1,0 1.5,0.63 1.5,1.87 v 12.8 h 19.27 v -12.8 c 0,-1.25 0.45,-1.87 1.34,-1.87 0.96,0 1.45,0.63 1.45,1.87 v 31.11 c 0,1.21 -0.45,1.82 -1.34,1.82 -0.96,0 -1.45,-0.61 -1.45,-1.82 v -15.53 h -19.27 v 15.53 z"
   id="path365" />
			<path
   class="st1"
   d="m 602.35,704.13 c -2.32,2.27 -5.3,3.4 -8.94,3.4 -3.64,0 -6.62,-1.12 -8.94,-3.37 -2.32,-2.25 -3.48,-5.35 -3.48,-9.32 v -9.64 c 0,-3.96 1.16,-7.07 3.48,-9.32 2.32,-2.25 5.3,-3.37 8.94,-3.37 3.64,0 6.62,1.13 8.94,3.4 2.32,2.27 3.48,5.36 3.48,9.29 v 9.64 c 0,3.92 -1.16,7.02 -3.48,9.29 z m -1.82,-26.21 c -1.68,-1.75 -4.05,-2.62 -7.12,-2.62 -3.07,0 -5.44,0.88 -7.12,2.62 -1.68,1.74 -2.52,4.19 -2.52,7.33 v 9.53 c 0,3.14 0.84,5.59 2.52,7.34 1.68,1.75 4.05,2.62 7.12,2.62 3.07,0 5.44,-0.87 7.12,-2.62 1.68,-1.75 2.52,-4.19 2.52,-7.34 v -9.53 c -0.01,-3.14 -0.84,-5.58 -2.52,-7.33 z"
   id="path367" />
			<path
   class="st1"
   d="m 637.67,704.13 c -2.32,2.27 -5.3,3.4 -8.94,3.4 -3.64,0 -6.62,-1.12 -8.94,-3.37 -2.32,-2.25 -3.48,-5.35 -3.48,-9.32 v -9.64 c 0,-3.96 1.16,-7.07 3.48,-9.32 2.32,-2.25 5.3,-3.37 8.94,-3.37 3.64,0 6.62,1.13 8.94,3.4 2.32,2.27 3.48,5.36 3.48,9.29 v 9.64 c 0,3.92 -1.16,7.02 -3.48,9.29 z m -1.82,-26.21 c -1.68,-1.75 -4.05,-2.62 -7.12,-2.62 -3.07,0 -5.44,0.88 -7.12,2.62 -1.68,1.74 -2.52,4.19 -2.52,7.33 v 9.53 c 0,3.14 0.84,5.59 2.52,7.34 1.68,1.75 4.05,2.62 7.12,2.62 3.07,0 5.44,-0.87 7.12,-2.62 1.68,-1.75 2.52,-4.19 2.52,-7.34 v -9.53 c -0.01,-3.14 -0.85,-5.58 -2.52,-7.33 z"
   id="path369" />
			<path
   class="st1"
   d="m 652.9,707.04 c -0.86,0 -1.29,-0.62 -1.29,-1.87 v -30.84 c 0,-1.14 0.46,-1.71 1.39,-1.71 0.93,0 1.39,0.57 1.39,1.71 v 29.93 h 17.29 c 1.18,0 1.77,0.48 1.77,1.45 0,0.89 -0.59,1.34 -1.77,1.34 H 652.9 Z"
   id="path371" />
			<path
   class="st1"
   d="m 686.99,704.85 c 0,0.36 -0.09,0.7 -0.27,1.02 l -2.2,4.44 c -0.36,0.86 -0.8,1.29 -1.34,1.29 -0.79,0 -1.18,-0.45 -1.18,-1.34 0,-0.14 0.05,-0.43 0.16,-0.86 l 1.29,-4.66 c 0.25,-0.82 0.7,-1.23 1.34,-1.23 0.39,0 0.86,0.11 1.39,0.32 0.54,0.22 0.81,0.55 0.81,1.02 z"
   id="path373" />
			<path
   class="st1"
   d="m 721.27,705.71 c 0,1.14 -0.48,1.71 -1.45,1.71 -0.89,0 -1.34,-0.57 -1.34,-1.71 v -31.32 c 0,-1.18 0.46,-1.77 1.39,-1.77 0.93,0 1.39,0.59 1.39,1.77 v 31.32 z"
   id="path375" />
			<path
   class="st1"
   d="m 755.19,707.42 c -0.5,0 -0.86,-0.13 -1.07,-0.38 l -19.65,-29.07 v 27.68 c 0,1.18 -0.46,1.77 -1.39,1.77 -0.93,0 -1.39,-0.61 -1.39,-1.82 v -31.11 c 0,-1.25 0.43,-1.87 1.29,-1.87 0.64,0 1.18,0.34 1.61,1.02 l 19.17,28.27 v -27.36 c 0,-1.28 0.45,-1.93 1.34,-1.93 0.96,0 1.45,0.63 1.45,1.87 v 31.11 c -0.02,1.21 -0.47,1.82 -1.36,1.82 z"
   id="path377" />
			<path
   class="st1"
   d="m 786.49,707.04 h -7.55 c -4.14,0 -7.17,-0.64 -9.08,-1.93 -1.91,-1.29 -2.87,-3.85 -2.87,-7.71 v -15.31 c 0,-3.85 0.95,-6.42 2.84,-7.71 1.89,-1.29 4.82,-1.93 8.78,-1.93 h 7.87 c 1.14,0 2.1,0.17 2.86,0.51 0.77,0.34 1.32,0.82 1.66,1.45 0.34,0.63 0.56,1.24 0.67,1.85 0.11,0.61 0.16,1.34 0.16,2.2 0,1.25 -0.46,1.87 -1.39,1.87 -0.93,0 -1.39,-0.59 -1.39,-1.77 0,-1.25 -0.21,-2.12 -0.64,-2.6 -0.43,-0.48 -1.2,-0.72 -2.3,-0.72 h -7.5 c -1.71,0 -3.05,0.06 -4.02,0.19 -0.96,0.13 -1.86,0.42 -2.68,0.88 -0.82,0.46 -1.38,1.16 -1.69,2.09 -0.3,0.93 -0.46,2.16 -0.46,3.69 v 15.31 c 0,2.96 0.64,4.85 1.93,5.65 1.29,0.8 3.69,1.21 7.23,1.21 h 7.17 c 1.14,0 1.92,-0.25 2.33,-0.75 0.41,-0.5 0.62,-1.36 0.62,-2.57 0,-1.18 0.46,-1.77 1.39,-1.77 0.93,0 1.39,0.64 1.39,1.93 0,0.82 -0.05,1.54 -0.16,2.14 -0.11,0.61 -0.33,1.22 -0.67,1.85 -0.34,0.63 -0.89,1.11 -1.66,1.45 -0.74,0.34 -1.69,0.5 -2.84,0.5 z"
   id="path379" />
			<path
   class="st1"
   d="m 803.71,703.3 c 0.57,0 1.17,0.21 1.79,0.64 0.62,0.43 0.94,0.95 0.94,1.55 0,0.61 -0.31,1.12 -0.94,1.55 -0.63,0.43 -1.22,0.64 -1.79,0.64 -0.61,0 -1.21,-0.21 -1.82,-0.64 -0.61,-0.43 -0.91,-0.95 -0.91,-1.55 0,-0.61 0.3,-1.12 0.91,-1.55 0.61,-0.43 1.22,-0.64 1.82,-0.64 z"
   id="path381" />
		</g>
	</g>
	<g
   id="g411">
		<g
   id="g409">
			<g
   id="g391">
				<g
   id="g389">
					<path
   class="st1"
   d="m 600.73,331.69 c 15.87,-19.32 20.48,-36.22 12.96,-47.61 -5.68,-8.59 -17.69,-13.12 -34.76,-13.12 -9.37,0 -19.97,1.39 -31.26,3.98 C 538.11,246.3 522.63,228 504.81,228 c -16.96,0 -31.82,16.63 -41.45,42.97 -11.84,-3.27 -22.87,-5.07 -32.39,-5.07 -13.94,0 -24.25,3.78 -29.82,10.94 -8.44,10.83 -5.23,28.01 9.03,48.36 3.7,5.28 8.05,10.62 12.93,15.96 -5.3,4.98 -10.08,10.01 -14.2,15.02 -15.88,19.32 -20.48,36.23 -12.96,47.61 5.68,8.59 17.7,13.13 34.75,13.13 0.01,0 0.01,0 0.01,0 9.37,0 19.96,-1.4 31.26,-3.98 9.56,28.63 25.04,46.92 42.84,46.92 16.98,0 31.84,-16.61 41.47,-42.97 11.82,3.27 22.85,5.07 32.39,5.07 13.94,0 24.25,-3.78 29.82,-10.94 11.07,-14.23 1.68,-38.7 -21.91,-64.36 5.3,-4.97 10.05,-9.98 14.15,-14.97 z m -21.8,-56.26 c 10.63,0 24.55,1.91 30.54,10.97 6.33,9.56 1.7,25.1 -12.69,42.59 -3.9,4.76 -8.41,9.52 -13.4,14.25 -7.65,-7.92 -16.61,-15.93 -26.72,-23.74 -1.38,-14.7 -4,-28.3 -7.63,-40.27 10.82,-2.45 20.96,-3.8 29.9,-3.8 z m -49.29,106.06 c -8.92,4.9 -17.93,9.28 -26.87,13.12 -8.61,-4.44 -17.28,-9.42 -25.78,-14.92 -6.72,-4.36 -13.16,-8.88 -19.24,-13.53 -0.66,-7.21 -1.01,-14.64 -1.01,-22.22 0,-8.28 0.43,-16.39 1.21,-24.2 6.97,-4.64 14.33,-9.12 22.05,-13.36 8.91,-4.89 17.93,-9.29 26.85,-13.12 8.63,4.44 17.28,9.42 25.78,14.92 6.77,4.37 13.2,8.93 19.26,13.58 0.65,7.18 1.01,14.6 1.01,22.18 0,8.28 -0.43,16.38 -1.21,24.19 -6.97,4.64 -14.35,9.11 -22.05,13.36 z m 21.37,-7.4 c -1.71,13.54 -4.52,26.1 -8.18,37.11 -11.1,-3.41 -22.85,-8.12 -34.77,-13.95 8.04,-3.57 16.12,-7.54 24.12,-11.94 6.52,-3.57 12.81,-7.33 18.83,-11.22 z m -53.73,22.82 c -10.86,4.4 -21.53,7.94 -31.67,10.53 -3.22,-10.53 -5.69,-22.34 -7.18,-34.97 5.03,3.73 10.28,7.37 15.73,10.89 7.62,4.91 15.36,9.43 23.12,13.55 z m -44.84,-34.93 c -8.38,-6.72 -16,-13.64 -22.67,-20.61 6.84,-6.13 14.52,-12.18 22.87,-18.02 -0.53,6.66 -0.82,13.53 -0.82,20.58 0,6.15 0.22,12.18 0.62,18.05 z m 6.19,-48.21 c 1.7,-13.54 4.51,-26.11 8.18,-37.11 11.08,3.4 22.85,8.13 34.77,13.95 -8.05,3.57 -16.14,7.54 -24.12,11.94 -6.53,3.58 -12.81,7.35 -18.83,11.22 z m 53.73,-22.8 c 10.85,-4.41 21.53,-7.96 31.66,-10.55 3.23,10.53 5.69,22.32 7.19,34.94 -5,-3.68 -10.25,-7.32 -15.73,-10.86 -7.61,-4.91 -15.37,-9.43 -23.12,-13.53 z m 44.84,34.99 c 8.41,6.79 15.99,13.74 22.55,20.62 -6.8,6.11 -14.44,12.12 -22.75,17.93 0.52,-6.66 0.8,-13.53 0.8,-20.57 0,-6.13 -0.2,-12.14 -0.6,-17.98 z m -52.39,-93.47 c 15.17,0 28.96,17.3 37.83,43.65 -11.38,2.91 -23.37,6.99 -35.54,12.08 -13.27,-6.67 -26.42,-12.02 -38.81,-15.81 8.91,-24.24 22.1,-39.92 36.52,-39.92 z m -99.65,46.95 c 4.59,-5.92 13.52,-9.05 25.81,-9.05 9.07,0 19.58,1.71 30.9,4.83 -4.09,12.35 -7.08,26.61 -8.69,42.13 -9.77,6.62 -18.73,13.55 -26.6,20.59 -4.63,-5.07 -8.76,-10.15 -12.27,-15.17 -12.9,-18.43 -16.24,-34.23 -9.15,-43.33 z m 25.55,132.98 c 0,0 0,0 -0.01,0 -10.63,0 -24.55,-1.9 -30.53,-10.96 -6.32,-9.56 -1.7,-25.09 12.69,-42.59 3.9,-4.77 8.44,-9.54 13.46,-14.3 7.75,8.07 16.72,16.06 26.64,23.76 1.4,14.72 4.02,28.33 7.65,40.3 -10.82,2.47 -20.94,3.79 -29.9,3.79 z m 74.1,42.96 c -15.16,0 -28.95,-17.3 -37.83,-43.65 11.38,-2.91 23.38,-7 35.56,-12.09 13.27,6.68 26.41,12.03 38.79,15.83 -8.89,24.23 -22.07,39.91 -36.52,39.91 z m 99.67,-46.96 c -4.61,5.93 -13.54,9.05 -25.8,9.05 -9.09,0 -19.6,-1.7 -30.92,-4.83 4.1,-12.34 7.08,-26.59 8.69,-42.13 9.74,-6.6 18.65,-13.49 26.5,-20.5 21.6,23.74 30.97,46.28 21.53,58.41 z"
   id="path387" />
				</g>
			</g>
			<g
   id="g395">
				<path
   class="st2"
   d="m 520.46,344.23 c 0,7.94 -7.06,14.38 -15.77,14.38 -8.71,0 -15.78,-6.44 -15.78,-14.38 0,-7.95 7.07,-14.38 15.78,-14.38 8.71,0 15.77,6.43 15.77,14.38 z"
   id="path393" />
			</g>
			<g
   id="g399">
				<path
   class="st2"
   d="m 435.55,338.85 c 0,5.2 -4.62,9.41 -10.32,9.41 -5.7,0 -10.32,-4.21 -10.32,-9.41 0,-5.2 4.63,-9.41 10.32,-9.41 5.7,0 10.32,4.21 10.32,9.41 z"
   id="path397" />
			</g>
			<g
   id="g403">
				<path
   class="st2"
   d="m 471.87,407.17 c 0,5.2 -4.62,9.41 -10.32,9.41 -5.7,0 -10.32,-4.21 -10.32,-9.41 0,-5.2 4.63,-9.41 10.32,-9.41 5.7,0 10.32,4.21 10.32,9.41 z"
   id="path401" />
			</g>
			<g
   id="g407">
				<path
   class="st2"
   d="m 617.15,282.95 c 0,5.2 -4.62,9.41 -10.32,9.41 -5.7,0 -10.32,-4.21 -10.32,-9.41 0,-5.2 4.63,-9.41 10.32,-9.41 5.7,0 10.32,4.21 10.32,9.41 z"
   id="path405" />
			</g>
		</g>
	</g>
</g></g></g><style
     type="text/css"
     id="style307">
	.st0{fill:#1979C1;}
	.st1{fill:#04BAE5;}
	.st2{fill:#001671;}
	.st3{fill:#FFFFFF;}
</style></svg>
